<svg width="116" height="116" viewBox="0 0 116 116" fill="none" xmlns="http://www.w3.org/2000/svg">
<circle cx="58" cy="58" r="52" fill="#0593FA"/>
<path d="M29.3103 51.7242C52.0872 51.7242 70.5514 70.1885 70.5515 92.9655C70.5515 94.4533 70.4708 95.9227 70.3171 97.3698C66.4274 98.5854 62.2901 99.2418 57.9998 99.2418C35.2229 99.2417 16.7585 80.7765 16.7585 57.9996C16.7586 56.5118 16.8383 55.0424 16.9919 53.5953C20.882 52.3795 25.0196 51.7242 29.3103 51.7242Z" fill="white"/>
<path d="M96.4666 72.8953C90.4933 88.3102 75.5241 99.241 57.9998 99.241C52.8578 99.241 47.9368 98.2972 43.3972 96.5779L44.6707 96.4471L65.5261 73.2391C68.6634 78.4475 74.3728 81.9313 80.8962 81.9315C87.562 81.9314 93.3767 78.2935 96.4666 72.8953Z" fill="white"/>
<path d="M82.7299 24.9941C92.755 32.5176 99.2415 44.501 99.2416 58C99.2416 59.9892 99.0978 61.9454 98.8256 63.8594C98.8192 63.0404 98.7565 62.2346 98.6439 61.4453C98.7645 60.4824 98.8275 59.5014 98.8275 58.5059C98.8275 47.2192 90.8451 37.7974 80.2181 35.5762L82.7299 24.9941ZM79.4076 38.9883C86.3514 40.4061 91.9793 45.4371 94.2445 52.0312C90.9622 48.3728 86.1991 46.0705 80.8969 46.0703C79.7914 46.0703 78.7087 46.1698 77.6586 46.3613L79.4076 38.9883Z" fill="white"/>
<circle cx="27.069" cy="57.5517" r="2.24138" fill="#0593FA"/>
</svg>
